<svg viewBox="0 0 512 512" xmlns="http://www.w3.org/2000/svg">
  <!-- Fundo verde -->
  <rect width="512" height="512" fill="#4CAF50"/>
  
  <!-- Letra M esquerda -->
  <path d="M50 150 L50 450 L120 450 L120 280 L180 380 L220 380 L280 280 L280 450 L350 450 L350 150 L280 150 L200 300 L120 150 Z" fill="#1B5E20"/>
  
  <!-- Coroa -->
  <path d="M200 80 L220 120 L240 100 L260 120 L280 100 L300 120 L312 80 L188 80 Z" fill="#1B5E20"/>
  <rect x="188" y="120" width="124" height="15" fill="#1B5E20"/>
  
  <!-- Círculo do leão -->
  <circle cx="250" cy="220" r="60" fill="#1B5E20"/>
  
  <!-- Cabeça do leão -->
  <path d="M230 200 Q250 180 270 200 Q275 210 270 220 Q250 240 230 220 Q225 210 230 200 Z" fill="#4CAF50"/>
  
  <!-- Juba do leão -->
  <path d="M210 190 Q230 170 250 180 Q270 170 290 190 Q295 210 290 230 Q270 250 250 240 Q230 250 210 230 Q205 210 210 190 Z" fill="#4CAF50" opacity="0.7"/>
  
  <!-- Olhos do leão -->
  <circle cx="240" cy="205" r="3" fill="#1B5E20"/>
  <circle cx="260" cy="205" r="3" fill="#1B5E20"/>
  
  <!-- Nariz do leão -->
  <path d="M248 215 L252 215 L250 220 Z" fill="#1B5E20"/>
  
  <!-- Boca do leão -->
  <path d="M245 225 Q250 230 255 225" stroke="#1B5E20" stroke-width="2" fill="none"/>
  
  <!-- Letra M direita -->
  <path d="M380 150 L380 450 L450 450 L450 280 L510 380 L550 380 L610 280 L610 450 L680 450 L680 150 L610 150 L530 300 L450 150 Z" fill="#1B5E20" transform="translate(-230, 0)"/>
</svg>