<?xml version="1.0" encoding="UTF-8"?>
<svg xmlns="http://www.w3.org/2000/svg" viewBox="0 0 512 512" width="512" height="512">
  <defs>
    <linearGradient id="bgGradient" x1="0%" y1="0%" x2="100%" y2="100%">
      <stop offset="0%" style="stop-color:#10b981;stop-opacity:1" />
      <stop offset="100%" style="stop-color:#047857;stop-opacity:1" />
    </linearGradient>
  </defs>
  
  <!-- Background circle -->
  <circle cx="256" cy="256" r="256" fill="url(#bgGradient)"/>
  
  <!-- Soccer ball -->
  <circle cx="256" cy="256" r="180" fill="#ffffff" stroke="#1f2937" stroke-width="8"/>
  
  <!-- Football lines pattern -->
  <!-- Central horizontal band -->
  <rect x="76" y="236" width="360" height="40" fill="none" stroke="#1f2937" stroke-width="12" rx="20"/>
  
  <!-- Vertical middle line -->
  <line x1="256" y1="76" x2="256" y2="436" stroke="#1f2937" stroke-width="12" stroke-linecap="round"/>
  
  <!-- Curved lines for football pattern -->
  <path d="M256,76 Q336,136 336,256 Q336,376 256,436 Q176,376 176,256 Q176,136 256,76" fill="none" stroke="#1f2937" stroke-width="8"/>
  <path d="M176,256 Q256,316 336,256" fill="none" stroke="#1f2937" stroke-width="6"/>
  <path d="M256,76 Q216,176 256,236 Q296,176 256,76" fill="none" stroke="#1f2937" stroke-width="6"/>
  <path d="M256,236 Q216,336 256,396 Q296,336 256,236" fill="none" stroke="#1f2937" stroke-width="6"/>
  
  <!-- Center point -->
  <circle cx="256" cy="256" r="24" fill="#1f2937"/>
  
  <!-- Text representation: Football -->
  <text x="256" y="300" text-anchor="middle" font-family="Arial, sans-serif" font-size="32" font-weight="bold" fill="#16a34a">⚽</text>
  
  <!-- Border rings -->
  <circle cx="256" cy="256" r="200" fill="none" stroke="#ffffff" stroke-width="6" opacity="0.3"/>
  <circle cx="256" cy="256" r="220" fill="none" stroke="#34d399" stroke-width="4"/>
</svg>