<?xml version="1.0" standalone="no"?>
<!DOCTYPE svg PUBLIC "-//W3C//DTD SVG 20010904//EN"
 "http://www.w3.org/TR/2001/REC-SVG-20010904/DTD/svg10.dtd">
<svg version="1.0" xmlns="http://www.w3.org/2000/svg"
 width="1024.000000pt" height="1024.000000pt" viewBox="0 0 1024.000000 1024.000000"
 preserveAspectRatio="xMidYMid meet">

<g transform="translate(0.000000,1024.000000) scale(0.100000,-0.100000)"
fill="#000000" stroke="none">
<path d="M5000 9320 c-189 -284 -333 -531 -313 -537 6 -2 29 -17 52 -34 153
-113 157 -326 8 -471 -130 -125 -348 -154 -500 -65 -54 32 -82 62 -103 112
-31 75 -16 152 40 204 l26 25 -37 39 c-127 131 -373 242 -640 291 l-33 5 34
-67 c19 -37 68 -148 111 -247 42 -99 85 -198 95 -221 48 -105 151 -372 231
-598 49 -137 90 -250 92 -252 1 -1 74 21 162 51 298 99 511 135 832 142 406 9
719 -42 1029 -167 62 -25 97 -34 99 -26 123 363 413 1094 515 1296 17 33 30
62 30 65 0 10 -109 -5 -215 -31 -163 -39 -329 -130 -432 -236 l-42 -43 33 -33
c88 -86 54 -233 -73 -309 -191 -114 -485 -30 -577 165 -74 157 -23 312 134
401 11 6 10 16 -8 52 -26 52 -142 244 -208 345 -97 149 -215 324 -218 324 -2
0 -57 -81 -124 -180z"/>
<path d="M5469 8683 c-13 -16 -12 -17 4 -4 9 7 17 15 17 17 0 8 -8 3 -21 -13z"/>
<path d="M1890 7760 c0 -3 23 -20 51 -39 72 -49 202 -191 250 -272 94 -162 99
-213 59 -579 -39 -362 -95 -881 -115 -1075 -9 -82 -25 -226 -35 -320 -11 -93
-60 -539 -110 -990 -107 -962 -132 -1157 -166 -1284 -50 -185 -138 -356 -268
-519 -76 -95 -237 -258 -309 -312 -26 -19 -47 -38 -47 -42 0 -5 522 -8 1160
-8 638 0 1160 2 1160 4 0 2 -29 20 -64 40 -162 91 -287 219 -361 371 -94 191
-98 314 -32 960 l44 429 -19 56 c-42 122 -89 298 -110 413 -27 147 -32 472
-10 597 65 362 206 655 425 879 62 63 185 163 264 213 l41 27 -75 -117 c-215
-336 -327 -665 -340 -999 -11 -288 50 -559 194 -853 163 -335 397 -598 894
-1005 216 -177 389 -328 458 -399 35 -37 66 -65 68 -62 10 9 -40 182 -84 290
-24 61 -99 217 -165 346 -134 259 -151 294 -204 407 -102 219 -171 477 -188
703 l-6 75 31 -60 c87 -171 194 -342 335 -531 48 -65 91 -121 94 -124 7 -7 64
-79 127 -160 191 -248 305 -480 360 -732 25 -118 25 -399 -1 -518 -20 -94 -65
-228 -102 -304 -13 -27 -22 -51 -19 -54 4 -5 303 141 375 184 380 223 633 424
879 694 101 113 122 137 238 290 127 166 330 492 461 738 l60 114 11 -84 c42
-319 101 -930 101 -1054 0 -243 -73 -418 -241 -580 -81 -77 -136 -117 -216
-158 -29 -14 -53 -29 -53 -31 0 -3 529 -5 1176 -5 l1177 0 -49 42 c-101 88
-217 204 -272 272 -31 39 -59 73 -62 76 -32 31 -150 224 -180 294 -80 188
-105 307 -150 716 -25 229 -157 1464 -190 1775 -5 50 -27 261 -49 470 -133
1261 -132 1246 -90 1372 37 114 157 270 276 364 37 29 72 56 77 61 5 4 -235 5
-535 3 -600 -6 -675 -12 -828 -67 -46 -17 -116 -52 -155 -79 -89 -59 -213
-187 -288 -298 l-58 -84 68 -72 c171 -179 285 -408 328 -657 16 -92 15 -142
-1 -103 -12 27 -118 186 -178 265 -227 299 -664 567 -1097 674 -468 115 -1034
54 -1553 -167 l-118 -50 -147 146 c-163 161 -182 178 -298 264 -166 122 -339
192 -530 212 -100 11 -1074 21 -1074 11z m3269 -876 c126 -23 304 -85 453
-158 268 -132 634 -364 623 -394 -3 -7 -1 -10 4 -7 13 8 65 -50 96 -106 14
-26 30 -71 35 -100 6 -30 15 -66 21 -81 7 -17 82 -82 202 -175 321 -248 540
-434 567 -483 7 -13 -32 -15 -321 -15 -282 0 -331 -2 -339 -15 -43 -68 59
-176 217 -229 l78 -26 0 -60 c-1 -72 -30 -137 -89 -195 -67 -67 -90 -74 -286
-80 -148 -6 -184 -10 -232 -29 -134 -52 -205 -131 -188 -207 25 -110 152 -143
336 -88 187 56 234 56 291 -1 48 -48 46 -107 -4 -206 -85 -165 -319 -346 -579
-448 l-51 -20 4 92 c20 403 -228 800 -657 1054 -47 27 -123 72 -170 98 -273
156 -435 308 -524 490 -51 104 -66 166 -66 273 0 174 75 331 222 467 110 102
239 175 393 221 33 10 62 19 64 21 5 3 -37 57 -86 109 -97 105 -231 190 -395
250 -43 16 -78 31 -78 35 0 6 106 25 180 33 56 5 188 -4 279 -20z m1941 -1924
c-18 -109 -55 -231 -102 -332 -22 -48 -43 -88 -45 -88 -2 0 -21 12 -41 27 -20
15 -38 28 -40 29 -1 0 9 26 22 57 14 31 42 100 62 154 52 140 88 216 121 258
l28 35 3 -32 c2 -18 -2 -67 -8 -108z"/>
<path d="M5840 6144 c-43 -6 -214 -40 -254 -52 -29 -8 -29 -9 45 -47 41 -21
137 -73 214 -115 207 -114 377 -201 383 -196 2 3 -12 28 -33 57 -87 122 -97
219 -32 312 10 16 17 31 14 34 -7 7 -290 13 -337 7z"/>
<path d="M3360 2446 c0 -3 9 -10 20 -16 11 -6 20 -8 20 -6 0 3 -9 10 -20 16
-11 6 -20 8 -20 6z"/>
</g>
</svg>
